<?xml version="1.0" standalone="no"?>
<!DOCTYPE svg PUBLIC "-//W3C//DTD SVG 20010904//EN"
 "http://www.w3.org/TR/2001/REC-SVG-20010904/DTD/svg10.dtd">
<svg version="1.0" xmlns="http://www.w3.org/2000/svg"
 width="214.000000pt" height="204.000000pt" viewBox="0 0 214.000000 204.000000"
 preserveAspectRatio="xMidYMid meet">
<metadata>
Created by potrace 1.14, written by Peter Selinger 2001-2017
</metadata>
<g transform="translate(0.000000,204.000000) scale(0.100000,-0.100000)"
fill="#000000" stroke="none">
<path d="M881 1806 c-130 -130 -181 -188 -175 -197 6 -11 744 -1007 797 -1076
7 -10 -7 -13 -66 -13 l-76 0 -290 386 -291 387 0 -387 0 -386 -65 0 -65 0 0
527 0 527 -45 -44 -45 -44 0 -466 0 -465 253 -253 252 -252 274 274 273 273
-404 544 c-222 299 -407 550 -412 557 -5 9 10 12 63 12 l71 0 298 -399 c163
-220 300 -400 305 -400 4 -1 6 180 5 402 -1 221 -4 359 -5 307 l-4 -94 -232
232 -232 232 -184 -184z"/>
<path d="M1664 1120 c0 -327 1 -566 3 -530 l4 65 182 183 182 182 -182 183
-183 182 -3 165 c-1 91 -3 -103 -3 -430z"/>
<path d="M260 1185 l-165 -165 168 -168 167 -167 0 333 c0 182 -1 332 -3 332
-1 0 -76 -74 -167 -165z"/>
</g>
</svg>
